HIERARCHY
ROOT hips
{
  OFFSET -0.00735851563513279 12.18665635585785 0.12248523347079754
  CHANNELS 6 Xposition Yposition Zposition Yrotation Xrotation Zrotation
  JOINT spine
  {
    OFFSET 1.0244548320770264e-7 0.5955291986465454 0
    CHANNELS 3 Yrotation Xrotation Zrotation
    JOINT chest
    {
      OFFSET 0 1.2719063864449713 0
      CHANNELS 3 Yrotation Xrotation Zrotation
      JOINT upperChest
      {
        OFFSET 0 1.490802666915459 0
        CHANNELS 3 Yrotation Xrotation Zrotation
        JOINT neck
        {
          OFFSET 0 1.3131953345263365 0
          CHANNELS 3 Yrotation Xrotation Zrotation
          JOINT head
          {
            OFFSET 0 0.8653679716847534 0
            CHANNELS 3 Yrotation Xrotation Zrotation
            JOINT leftEye
            {
              OFFSET 0.20629723300226033 0.6721053123474121 0.3036841657012701
              CHANNELS 3 Yrotation Xrotation Zrotation
              End Site
              {
                OFFSET 0.20629723300226033 0.6721053123474121 0.3036841657012701
              }
            }
            JOINT rightEye
            {
              OFFSET -0.20629652100615203 0.6721066236495972 0.30368443205952644
              CHANNELS 3 Yrotation Xrotation Zrotation
              End Site
              {
                OFFSET -0.20629652100615203 0.6721066236495972 0.30368443205952644
              }
            }
          }
        }
        JOINT leftShoulder
        {
          OFFSET 0.24624172446783632 0.959903359413147 0
          CHANNELS 3 Yrotation Xrotation Zrotation
          JOINT leftUpperArm
          {
            OFFSET 0.9650355761446514 0 0
            CHANNELS 3 Yrotation Xrotation Zrotation
            JOINT leftLowerArm
            {
              OFFSET 2.4419134471639827 0 0
              CHANNELS 3 Yrotation Xrotation Zrotation
              JOINT leftHand
              {
                OFFSET 2.3874557408809456 0 0
                CHANNELS 3 Yrotation Xrotation Zrotation
                JOINT leftIndexProximal
                {
                  OFFSET 0.7029628753662109 0.06118142604827881 0.23586585000157356
                  CHANNELS 3 Yrotation Xrotation Zrotation
                  JOINT leftIndexIntermediate
                  {
                    OFFSET 0.36102771759033203 -0.001475214958190918 0.056637559086084366
                    CHANNELS 3 Yrotation Xrotation Zrotation
                    JOINT leftIndexDistal
                    {
                      OFFSET 0.22344785928726196 -0.007408857345581055 0.02531452476978302
                      CHANNELS 3 Yrotation Xrotation Zrotation
                      End Site
                      {
                        OFFSET 0.22344785928726196 -0.007408857345581055 0.02531452476978302
                      }
                    }
                  }
                }
                JOINT leftLittleProximal
                {
                  OFFSET 0.6958752870559692 0.034375786781311035 -0.29472956992685795
                  CHANNELS 3 Yrotation Xrotation Zrotation
                  JOINT leftLittleIntermediate
                  {
                    OFFSET 0.34538060426712036 -0.0030041933059692383 0.00024324655532836914
                    CHANNELS 3 Yrotation Xrotation Zrotation
                    JOINT leftLittleDistal
                    {
                      OFFSET 0.19865047931671143 0.00746917724609375 -0.010377676226198673
                      CHANNELS 3 Yrotation Xrotation Zrotation
                      End Site
                      {
                        OFFSET 0.19865047931671143 0.00746917724609375 -0.010377676226198673
                      }
                    }
                  }
                }
                JOINT leftMiddleProximal
                {
                  OFFSET 0.7272291779518127 0.09209799766540527 0.05257739871740341
                  CHANNELS 3 Yrotation Xrotation Zrotation
                  JOINT leftMiddleIntermediate
                  {
                    OFFSET 0.40590834617614746 -0.014838695526123047 0.026817932724952698
                    CHANNELS 3 Yrotation Xrotation Zrotation
                    JOINT leftMiddleDistal
                    {
                      OFFSET 0.2495119571685791 -0.026458144187927246 0.010310646146535873
                      CHANNELS 3 Yrotation Xrotation Zrotation
                      End Site
                      {
                        OFFSET 0.2495119571685791 -0.026458144187927246 0.010310646146535873
                      }
                    }
                  }
                }
                JOINT leftRingProximal
                {
                  OFFSET 0.7334893345832825 0.09136629104614258 -0.1205735495314002
                  CHANNELS 3 Yrotation Xrotation Zrotation
                  JOINT leftRingIntermediate
                  {
                    OFFSET 0.3775520920753479 -0.005917906761169434 0.001896639820188284
                    CHANNELS 3 Yrotation Xrotation Zrotation
                    JOINT leftRingDistal
                    {
                      OFFSET 0.2177620530128479 0.007703900337219238 0.0027355607599020004
                      CHANNELS 3 Yrotation Xrotation Zrotation
                      End Site
                      {
                        OFFSET 0.2177620530128479 0.007703900337219238 0.0027355607599020004
                      }
                    }
                  }
                }
                JOINT leftThumbProximal
                {
                  OFFSET 0.02235114574432373 -0.07603192329406738 0.1950724683701992
                  CHANNELS 3 Yrotation Xrotation Zrotation
                  JOINT leftThumbIntermediate
                  {
                    OFFSET 0.3551589846611023 -0.02970755100250244 0.36741212010383606
                    CHANNELS 3 Yrotation Xrotation Zrotation
                    JOINT leftThumbDistal
                    {
                      OFFSET 0.23456048965454102 -0.016631245613098145 0.2093813568353653
                      CHANNELS 3 Yrotation Xrotation Zrotation
                      End Site
                      {
                        OFFSET 0.23456048965454102 -0.016631245613098145 0.2093813568353653
                      }
                    }
                  }
                }
              }
            }
          }
        }
        JOINT rightShoulder
        {
          OFFSET -0.24624088185373694 0.9600239992141724 0
          CHANNELS 3 Yrotation Xrotation Zrotation
          JOINT rightUpperArm
          {
            OFFSET -0.9650300767908009 0 0
            CHANNELS 3 Yrotation Xrotation Zrotation
            JOINT rightLowerArm
            {
              OFFSET -2.4420125187833426 0 0
              CHANNELS 3 Yrotation Xrotation Zrotation
              JOINT rightHand
              {
                OFFSET -2.3874255620910265 0 0
                CHANNELS 3 Yrotation Xrotation Zrotation
                JOINT rightIndexProximal
                {
                  OFFSET -0.7029609084129333 0.06117355823516846 0.23587234504520893
                  CHANNELS 3 Yrotation Xrotation Zrotation
                  JOINT rightIndexIntermediate
                  {
                    OFFSET -0.3610270619392395 -0.0014804601669311523 0.05664427950978279
                    CHANNELS 3 Yrotation Xrotation Zrotation
                    JOINT rightIndexDistal
                    {
                      OFFSET -0.2234485149383545 -0.0074127912521362305 0.025317884981632233
                      CHANNELS 3 Yrotation Xrotation Zrotation
                      End Site
                      {
                        OFFSET -0.2234485149383545 -0.0074127912521362305 0.025317884981632233
                      }
                    }
                  }
                }
                JOINT rightLittleProximal
                {
                  OFFSET -0.6958779096603394 0.034366607666015625 -0.29472311586141586
                  CHANNELS 3 Yrotation Xrotation Zrotation
                  JOINT rightLittleIntermediate
                  {
                    OFFSET -0.3453786373138428 -0.003008127212524414 0.00025422871112823486
                    CHANNELS 3 Yrotation Xrotation Zrotation
                    JOINT rightLittleDistal
                    {
                      OFFSET -0.19865179061889648 0.00746917724609375 -0.010371447540819645
                      CHANNELS 3 Yrotation Xrotation Zrotation
                      End Site
                      {
                        OFFSET -0.19865179061889648 0.00746917724609375 -0.010371447540819645
                      }
                    }
                  }
                }
                JOINT rightMiddleProximal
                {
                  OFFSET -0.7272304892539978 0.09209012985229492 0.05258418060839176
                  CHANNELS 3 Yrotation Xrotation Zrotation
                  JOINT rightMiddleIntermediate
                  {
                    OFFSET -0.4059063792228699 -0.014843940734863281 0.026821313425898552
                    CHANNELS 3 Yrotation Xrotation Zrotation
                    JOINT rightMiddleDistal
                    {
                      OFFSET -0.24951326847076416 -0.026460766792297363 0.010313207283616066
                      CHANNELS 3 Yrotation Xrotation Zrotation
                      End Site
                      {
                        OFFSET -0.24951326847076416 -0.026460766792297363 0.010313207283616066
                      }
                    }
                  }
                }
                JOINT rightRingProximal
                {
                  OFFSET -0.7334906458854675 0.09135580062866211 -0.12056719791144133
                  CHANNELS 3 Yrotation Xrotation Zrotation
                  JOINT rightRingIntermediate
                  {
                    OFFSET -0.37755340337753296 -0.005923151969909668 0.0019026175141334534
                    CHANNELS 3 Yrotation Xrotation Zrotation
                    JOINT rightRingDistal
                    {
                      OFFSET -0.21775943040847778 0.007701277732849121 0.0027383523993194103
                      CHANNELS 3 Yrotation Xrotation Zrotation
                      End Site
                      {
                        OFFSET -0.21775943040847778 0.007701277732849121 0.0027383523993194103
                      }
                    }
                  }
                }
                JOINT rightThumbProximal
                {
                  OFFSET -0.022347867488861084 -0.07603061199188232 0.19507363624870777
                  CHANNELS 3 Yrotation Xrotation Zrotation
                  JOINT rightThumbIntermediate
                  {
                    OFFSET -0.3550455570220947 -0.029461026191711426 0.36754218488931656
                    CHANNELS 3 Yrotation Xrotation Zrotation
                    JOINT rightThumbDistal
                    {
                      OFFSET -0.23451131582260132 -0.016489624977111816 0.20944765955209732
                      CHANNELS 3 Yrotation Xrotation Zrotation
                      End Site
                      {
                        OFFSET -0.23451131582260132 -0.016489624977111816 0.20944765955209732
                      }
                    }
                  }
                }
              }
            }
          }
        }
      }
    }
  }
  JOINT leftUpperLeg
  {
    OFFSET 0.8483456987887621 -0.42556869983673096 0
    CHANNELS 3 Yrotation Xrotation Zrotation
    JOINT leftLowerLeg
    {
      OFFSET 0 -4.6702112872869534 0
      CHANNELS 3 Yrotation Xrotation Zrotation
      JOINT leftFoot
      {
        OFFSET -0.13096565008163452 -5.202569782733917 -0.2985280640423298
        CHANNELS 3 Yrotation Xrotation Zrotation
        JOINT leftToes
        {
          OFFSET 0.01423943042755127 -0.7568342834711075 1.213271364569664
          CHANNELS 3 Yrotation Xrotation Zrotation
          End Site
          {
            OFFSET 0.01423943042755127 -0.7568342834711075 1.213271364569664
          }
        }
      }
    }
  }
  JOINT rightUpperLeg
  {
    OFFSET -0.8483468051999807 -0.42556607723236084 0
    CHANNELS 3 Yrotation Xrotation Zrotation
    JOINT rightLowerLeg
    {
      OFFSET 0 -4.670219469177788 0
      CHANNELS 3 Yrotation Xrotation Zrotation
      JOINT rightFoot
      {
        OFFSET 0.13097601756453514 -5.202573716640472 -0.29853164963424206
        CHANNELS 3 Yrotation Xrotation Zrotation
        JOINT rightToes
        {
          OFFSET -0.014232628047466278 -0.7568355947732925 1.213272675871849
          CHANNELS 3 Yrotation Xrotation Zrotation
          End Site
          {
            OFFSET -0.014232628047466278 -0.7568355947732925 1.213272675871849
          }
        }
      }
    }
  }
}
MOTION
Frames: 4
Frame Time: 0.03333333333333333
0.103636 0.100893 -1.171652 2.562147 29.260702 -8.465302 -3.008762 12.995774 6.112896 0.075483 -17.874965 -2.809147 0 0 0 -6.457383 29.093648 1.011535 -13.999939 -28.331971 14.948728 0 0 0 0 0 0 -8.805303 2.600311 -13.245125 -56.289684 21.56586 -25.859993 -95.296297 32.531703 32.443248 -1.24651 6.527999 -2.170241 -3.636292 -2.244307 -19.133199 -7.100467 3.62086 1.822583 0 0 0 37.981329 3.85712 -18.21386 -3.981505 -0.312001 -2.714025 0 0 0 2.929467 -1.231741 -10.13273 -1.246458 0.377728 3.981735 0 0 0 18.723955 0.463054 -17.775594 -4.013708 0.99524 -3.126586 0 0 0 18.269087 2.108643 -5.565532 3.717059 8.635663 -20.580557 0 0 0 8.805303 2.600311 13.245125 48.916615 5.936195 22.940669 122.120597 45.402728 -29.069126 -1.011499 -8.423274 -2.584371 3.635273 -2.24402 19.132416 7.100747 3.620751 -1.822804 0 0 0 -37.983061 3.857696 18.213087 3.981514 -0.312002 2.714676 0 0 0 -2.929954 -1.23167 10.131993 1.246384 0.377706 -3.981553 0 0 0 -18.724815 0.463336 17.774795 4.013885 0.995202 3.126699 0 0 0 -18.287739 2.122715 5.592006 -3.712166 8.636711 20.577783 0 0 0 -73.061557 -17.358089 22.574166 3.081037 8.587425 0.472719 63.147388 -68.926572 -14.056237 0 0 0 41.675258 -20.531725 -17.305727 0.175125 -11.036088 0.968509 -41.4851 -22.7615 -4.755655 0 0 0
0.10991 0.102404 -1.172298 2.495813 29.093017 -8.308074 -2.625145 12.85664 6.715502 0.126195 -17.520576 -2.654963 0 0 0 -6.21027 29.215816 1.700225 -13.608736 -26.150854 11.390657 0 0 0 0 0 0 -8.805303 2.600311 -13.245125 -56.115061 22.435243 -26.601187 -96.673962 33.28246 32.476073 -1.23603 6.478053 -2.153005 -3.636292 -2.244307 -19.133199 -7.100467 3.62086 1.822583 0 0 0 37.981329 3.85712 -18.21386 -3.981505 -0.312001 -2.714025 0 0 0 2.929467 -1.231741 -10.13273 -1.246458 0.377728 3.981735 0 0 0 18.723955 0.463054 -17.775594 -4.013708 0.99524 -3.126586 0 0 0 18.269087 2.108643 -5.565532 3.717059 8.635663 -20.580557 0 0 0 8.805303 2.600311 13.245125 50.036695 3.811383 22.153131 122.777744 45.683437 -28.923517 -1.516945 -17.409155 -5.44365 3.635273 -2.24402 19.132416 7.100747 3.620751 -1.822804 0 0 0 -37.983061 3.857696 18.213087 3.981514 -0.312002 2.714676 0 0 0 -2.929954 -1.23167 10.131993 1.246384 0.377706 -3.981553 0 0 0 -18.724815 0.463336 17.774795 4.013885 0.995202 3.126699 0 0 0 -18.287739 2.122715 5.592006 -3.712166 8.636711 20.577783 0 0 0 -72.937002 -17.457974 22.392671 3.075585 8.555495 0.469692 63.11512 -68.733467 -13.941185 0 0 0 41.726537 -20.266128 -17.305881 0.174133 -11.092182 0.969973 -41.451741 -22.919635 -4.743114 0 0 0
0.119722 0.100725 -1.165092 2.022747 28.739222 -8.191706 -2.232501 12.715531 6.963235 0.255904 -17.144457 -2.833347 0 0 0 -6.32558 28.439586 1.513138 -13.213196 -21.101588 7.43293 0 0 0 0 0 0 -8.805303 2.600311 -13.245125 -55.975983 23.237604 -27.274429 -97.643292 33.806499 32.482404 -1.190146 6.25713 -2.0771 -3.636292 -2.244307 -19.133199 -7.100467 3.62086 1.822583 0 0 0 37.981329 3.85712 -18.21386 -3.981505 -0.312001 -2.714025 0 0 0 2.929467 -1.231741 -10.13273 -1.246458 0.377728 3.981735 0 0 0 18.723955 0.463054 -17.775594 -4.013708 0.99524 -3.126586 0 0 0 18.269087 2.108643 -5.565532 3.717059 8.635663 -20.580557 0 0 0 8.805303 2.600311 13.245125 51.196441 0.459074 20.680693 122.433718 45.550934 -29.019507 -1.552711 -30.184054 -9.746148 3.635273 -2.24402 19.132416 7.100747 3.620751 -1.822804 0 0 0 -37.983061 3.857696 18.213087 3.981514 -0.312002 2.714676 0 0 0 -2.929954 -1.23167 10.131993 1.246384 0.377706 -3.981553 0 0 0 -18.724815 0.463336 17.774795 4.013885 0.995202 3.126699 0 0 0 -18.287739 2.122715 5.592006 -3.712166 8.636711 20.577783 0 0 0 -72.363929 -17.689266 21.924279 3.070749 8.579909 0.470443 63.122013 -68.578851 -13.915985 0 0 0 42.176458 -19.865435 -17.382376 0.181207 -11.042473 0.970306 -41.632746 -22.669886 -4.76057 0 0 0
0.13824 0.096399 -1.170129 1.166805 28.218742 -8.131376 -2.04388 12.701159 6.779856 0.408499 -16.681748 -3.382174 0 0 0 -6.725766 27.463316 0.613766 -13.176522 -14.246366 2.419916 0 0 0 0 0 0 -8.805303 2.600311 -13.245125 -55.446524 23.997879 -27.667684 -98.364949 34.194242 32.478599 -1.100087 5.82117 -1.927653 -3.636292 -2.244307 -19.133199 -7.100467 3.62086 1.822583 0 0 0 37.981329 3.85712 -18.21386 -3.981505 -0.312001 -2.714025 0 0 0 2.929467 -1.231741 -10.13273 -1.246458 0.377728 3.981735 0 0 0 18.723955 0.463054 -17.775594 -4.013708 0.99524 -3.126586 0 0 0 18.269087 2.108643 -5.565532 3.717059 8.635663 -20.580557 0 0 0 8.805303 2.600311 13.245125 52.579292 -4.228136 17.659946 121.914488 45.344938 -29.15638 -1.028315 -43.417449 -14.502039 3.635273 -2.24402 19.132416 7.100747 3.620751 -1.822804 0 0 0 -37.983061 3.857696 18.213087 3.981514 -0.312002 2.714676 0 0 0 -2.929954 -1.23167 10.131993 1.246384 0.377706 -3.981553 0 0 0 -18.724815 0.463336 17.774795 4.013885 0.995202 3.126699 0 0 0 -18.287739 2.122715 5.592006 -3.712166 8.636711 20.577783 0 0 0 -71.375207 -18.022779 21.211401 3.06929 8.660413 0.474329 63.215942 -68.455463 -13.993407 0 0 0 42.998048 -19.363751 -17.521589 0.192331 -10.903077 0.969534 -42.030092 -21.973382 -4.803868 0 0 0
